<svg width="31" height="30" viewBox="0 0 31 30" fill="none" xmlns="http://www.w3.org/2000/svg">
<path d="M28.6297 0H1.93967C1.02592 0 0.284668 0.74125 0.284668 1.655V28.345C0.284668 29.26 1.02592 30 1.93967 30H16.3072V18.3825H12.3959V13.8562H16.3072V10.5125C16.3072 6.63875 18.6747 4.53125 22.1309 4.53125C23.7872 4.53125 25.2109 4.6525 25.6259 4.7075V8.7575H23.2247C21.3497 8.7575 20.9847 9.65875 20.9847 10.9713V13.86H25.4647L24.8834 18.3975H20.9847V30H28.6284C29.5447 30 30.2847 29.26 30.2847 28.345V1.655C30.2847 0.74125 29.5447 0 28.6297 0Z" fill="#13141F"/>
</svg>
