<svg width="41" height="41" viewBox="0 0 41 41" fill="none" xmlns="http://www.w3.org/2000/svg">
<path d="M38.5294 0.516357H2.94275C1.72442 0.516357 0.736084 1.50469 0.736084 2.72302V38.3097C0.736084 39.5297 1.72442 40.5164 2.94275 40.5164H22.0994V25.0264H16.8844V18.9914H22.0994V14.533C22.0994 9.36802 25.2561 6.55802 29.8644 6.55802C32.0727 6.55802 33.9711 6.71969 34.5244 6.79302V12.193H31.3227C28.8227 12.193 28.3361 13.3947 28.3361 15.1447V18.9964H34.3094L33.5344 25.0464H28.3361V40.5164H38.5277C39.7494 40.5164 40.7361 39.5297 40.7361 38.3097V2.72302C40.7361 1.50469 39.7494 0.516357 38.5294 0.516357Z" fill="#3B5998"/>
</svg>
