<svg width="31" height="30" viewBox="0 0 31 30" fill="none" xmlns="http://www.w3.org/2000/svg">
<path d="M15.2847 0C11.2097 0 10.7009 0.01875 9.10092 0.09C7.50342 0.165 6.41592 0.41625 5.45967 0.7875C4.47342 1.17 3.63592 1.68375 2.80217 2.5175C1.96842 3.35125 1.45342 4.1875 1.07217 5.175C0.700918 6.13125 0.448418 7.21875 0.374668 8.81625C0.299668 10.4163 0.284668 10.925 0.284668 15C0.284668 19.075 0.303418 19.5837 0.374668 21.1838C0.449668 22.78 0.700918 23.8688 1.07217 24.825C1.45467 25.81 1.96842 26.6488 2.80217 27.4825C3.63592 28.315 4.47217 28.8313 5.45967 29.2125C6.41717 29.5825 7.50467 29.8363 9.10092 29.91C10.7009 29.985 11.2097 30 15.2847 30C19.3597 30 19.8684 29.9812 21.4684 29.91C23.0647 29.835 24.1534 29.5825 25.1097 29.2125C26.0947 28.83 26.9334 28.315 27.7672 27.4825C28.5997 26.6488 29.1159 25.8138 29.4972 24.825C29.8672 23.8688 30.1209 22.78 30.1947 21.1838C30.2697 19.5837 30.2847 19.075 30.2847 15C30.2847 10.925 30.2659 10.4163 30.1947 8.81625C30.1197 7.22 29.8672 6.13 29.4972 5.175C29.1147 4.18875 28.5997 3.35125 27.7672 2.5175C26.9334 1.68375 26.0984 1.16875 25.1097 0.7875C24.1534 0.41625 23.0647 0.16375 21.4684 0.09C19.8684 0.015 19.3597 0 15.2847 0ZM15.2847 2.7C19.2884 2.7 19.7659 2.72 21.3472 2.78875C22.8097 2.8575 23.6034 3.1 24.1309 3.3075C24.8334 3.57875 25.3309 3.90375 25.8584 4.4275C26.3822 4.9525 26.7072 5.45125 26.9784 6.15375C27.1834 6.68125 27.4284 7.475 27.4947 8.9375C27.5659 10.52 27.5822 10.995 27.5822 15C27.5822 19.005 27.5634 19.4813 27.4897 21.0625C27.4134 22.525 27.1697 23.3188 26.9634 23.8462C26.6834 24.5487 26.3647 25.0462 25.8397 25.5737C25.3159 26.0975 24.8097 26.4225 24.1147 26.6937C23.5897 26.8988 22.7834 27.1437 21.3209 27.21C19.7284 27.2812 19.2597 27.2975 15.2472 27.2975C11.2334 27.2975 10.7647 27.2787 9.17342 27.205C7.70967 27.1287 6.90342 26.885 6.37842 26.6788C5.66717 26.3988 5.17842 26.08 4.65467 25.555C4.12842 25.0312 3.79217 24.525 3.52967 23.83C3.32342 23.305 3.08092 22.4988 3.00467 21.0363C2.94842 19.4613 2.92842 18.975 2.92842 14.9812C2.92842 10.9862 2.94842 10.4987 3.00467 8.905C3.08092 7.4425 3.32342 6.6375 3.52967 6.1125C3.79217 5.4 4.12842 4.9125 4.65467 4.38625C5.17842 3.8625 5.66717 3.525 6.37842 3.26375C6.90342 3.05625 7.69217 2.8125 9.15467 2.7375C10.7484 2.68125 11.2172 2.6625 15.2284 2.6625L15.2847 2.7ZM15.2847 7.2975C11.0284 7.2975 7.58217 10.7475 7.58217 15C7.58217 19.2563 11.0322 22.7025 15.2847 22.7025C19.5409 22.7025 22.9872 19.2525 22.9872 15C22.9872 10.7437 19.5372 7.2975 15.2847 7.2975ZM15.2847 20C12.5222 20 10.2847 17.7625 10.2847 15C10.2847 12.2375 12.5222 10 15.2847 10C18.0472 10 20.2847 12.2375 20.2847 15C20.2847 17.7625 18.0472 20 15.2847 20ZM25.0922 6.99375C25.0922 7.9875 24.2847 8.79375 23.2922 8.79375C22.2984 8.79375 21.4922 7.98625 21.4922 6.99375C21.4922 6.00125 22.2997 5.195 23.2922 5.195C24.2834 5.19375 25.0922 6.00125 25.0922 6.99375Z" fill="#13141F"/>
</svg>
