<svg width="31" height="26" viewBox="0 0 31 26" fill="none" xmlns="http://www.w3.org/2000/svg">
<path d="M30.7272 3.71124C29.6209 4.19749 28.4397 4.52874 27.1959 4.67999C28.4634 3.91624 29.4384 2.7125 29.8997 1.27625C28.7109 1.97 27.3934 2.475 25.9909 2.75625C24.8709 1.5575 23.2747 0.807495 21.5022 0.807495C18.1059 0.807495 15.3522 3.56124 15.3522 6.95374C15.3522 7.44125 15.4084 7.90999 15.5109 8.35874C10.3984 8.11749 5.86717 5.6625 2.83467 1.95125C2.30092 2.85374 2.00217 3.9025 2.00217 5.045C2.00217 7.1825 3.08967 9.06124 4.73717 10.165C3.72842 10.1325 2.77967 9.85499 1.95217 9.39499V9.47124C1.95217 12.4525 4.06842 14.9387 6.88467 15.505C6.36842 15.6437 5.82342 15.7187 5.26467 15.7187C4.87217 15.7187 4.49592 15.6812 4.11967 15.6112C4.90842 18.0525 7.17592 19.8325 9.87467 19.8825C7.77467 21.5312 5.11342 22.5137 2.24717 22.5137C1.75967 22.5137 1.27342 22.485 0.784668 22.43C3.52092 24.1725 6.74467 25.1912 10.2309 25.1912C21.5484 25.1912 27.7297 15.8212 27.7297 7.70875C27.7297 7.44749 27.7297 7.18374 27.7109 6.92124C28.9122 6.05999 29.9609 4.97125 30.7859 3.73625L30.7272 3.71124Z" fill="#13141F"/>
</svg>
